<svg xmlns="http://www.w3.org/2000/svg" width="128" height="128" viewBox="0 0 128 128"><defs><linearGradient id="SVG0tOcze0Q"><stop offset=".027" stop-color="#cc7f12"/><stop offset=".157" stop-color="#ffc22f"/><stop offset=".5" stop-color="#ffd468"/><stop offset="1" stop-color="#ffd255"/></linearGradient><linearGradient id="SVG51cRhdQc"><stop offset="0" stop-color="#bf4f95"/><stop offset=".284" stop-color="#d26aaa"/><stop offset=".588" stop-color="#dc81bb"/><stop offset=".711" stop-color="#d76cad"/><stop offset=".825" stop-color="#d26cab"/><stop offset=".957" stop-color="#ca629d"/><stop offset="1" stop-color="#c96499"/></linearGradient><linearGradient id="SVGXpN2Cv7k"><stop offset="0" stop-color="#b94481" stop-opacity="0"/><stop offset=".694" stop-color="#b94481" stop-opacity="0.186"/><stop offset="1" stop-color="#b94481"/></linearGradient><linearGradient id="SVGd7ZO0cSt"><stop offset="0" stop-color="#b94481" stop-opacity="0"/><stop offset=".644" stop-color="#b94481" stop-opacity="0.186"/><stop offset="1" stop-color="#b94481"/></linearGradient><linearGradient id="SVGpz4CFb1q" x1="75.533" x2="84.143" y1="24.539" y2="26.989" gradientTransform="translate(-138.07 -65.083)scale(3.17893)" gradientUnits="userSpaceOnUse"><stop offset=".021" stop-color="#a65486"/><stop offset=".095" stop-color="#db77b4"/><stop offset=".146" stop-color="#f188c8"/><stop offset=".255" stop-color="#ffaddf"/><stop offset=".372" stop-color="#ffaddf"/><stop offset=".576" stop-color="#ee84c5"/><stop offset=".747" stop-color="#da6fb0"/><stop offset="1" stop-color="#a63d7b"/></linearGradient><linearGradient id="SVG4lkTQbHK" x1="75.683" x2="81.533" y1="32.735" y2="34.22" gradientTransform="translate(-138.02 -65.654)scale(3.17893)" gradientUnits="userSpaceOnUse"><stop offset=".195" stop-color="#974377"/><stop offset=".247" stop-color="#cc76ac"/><stop offset=".33" stop-color="#f5a3d4"/><stop offset=".39" stop-color="#fca6da"/><stop offset=".476" stop-color="#e980c1"/><stop offset=".62" stop-color="#a34d81"/></linearGradient><linearGradient id="SVG3fFUedlA" x1="84.026" x2="80.731" y1="40.955" y2="45.932" gradientTransform="translate(-162.274 -67.103)scale(3.17893)" gradientUnits="userSpaceOnUse" spreadMethod="reflect"><stop offset="0" stop-color="#dc83b9"/><stop offset=".159" stop-color="#de77b5"/><stop offset=".56" stop-color="#dd74b3"/><stop offset=".797" stop-color="#d65fa3"/><stop offset="1" stop-color="#c95195" stop-opacity="0.992"/></linearGradient><linearGradient id="SVGHimSxd9I" x1="78.017" x2="81.33" y1="49.373" y2="53.353" gradientTransform="translate(-168.668 -75.437)scale(3.17893)" gradientUnits="userSpaceOnUse" href="#SVG51cRhdQc"/><linearGradient id="SVGEl2jeeKF" x1="65.654" x2="68.885" y1="38.931" y2="42.708" gradientTransform="translate(-137.907 -65.725)scale(3.17893)" gradientUnits="userSpaceOnUse"><stop offset="0" stop-color="#bf4f95"/><stop offset=".284" stop-color="#d26aaa"/><stop offset=".588" stop-color="#dc81ba"/><stop offset=".711" stop-color="#d76cad"/><stop offset=".825" stop-color="#d26cab"/><stop offset=".957" stop-color="#ca629d"/><stop offset="1" stop-color="#c96499"/></linearGradient><linearGradient id="SVGoJRE1d7m" x1="56.495" x2="60.682" y1="36.149" y2="41.138" gradientTransform="translate(-137.907 -65.725)scale(3.17893)" gradientUnits="userSpaceOnUse" href="#SVG51cRhdQc"/><linearGradient id="SVGuGJ3HbdJ" x1="48.116" x2="52.831" y1="43.62" y2="49.525" gradientTransform="translate(-137.907 -65.725)scale(3.17893)" gradientUnits="userSpaceOnUse"><stop offset=".085" stop-color="#cc7f12"/><stop offset=".127" stop-color="#ffc22f"/><stop offset=".5" stop-color="#ffd468"/><stop offset="1" stop-color="#ffd255"/></linearGradient><linearGradient id="SVGNRJWHeQz" x1="61.027" x2="67.311" y1="52.984" y2="60.788" gradientTransform="translate(-137.907 -65.725)scale(3.17893)" gradientUnits="userSpaceOnUse" href="#SVG0tOcze0Q"/><linearGradient id="SVGEIhUyUOY" x1="54.432" x2="60.703" y1="47.454" y2="54.998" gradientTransform="translate(-137.907 -65.725)scale(3.17893)" gradientUnits="userSpaceOnUse" href="#SVG0tOcze0Q"/><radialGradient id="SVGpm5DKeGw" cx="82.591" cy="43.432" r="3.168" gradientTransform="rotate(20.482 495.636 -67.46)scale(2.10926 4.5952)" gradientUnits="userSpaceOnUse" href="#SVGd7ZO0cSt"/><radialGradient id="SVGrOSXxcNY" cx="79.826" cy="51.54" r="4.893" gradientTransform="rotate(-40.472 231.96 521.69)scale(5.02628 1.8924)" gradientUnits="userSpaceOnUse" href="#SVGd7ZO0cSt"/><radialGradient id="SVGGXUzEwBW" cx="67.057" cy="40.547" r="5.605" gradientTransform="rotate(42.07 260.796 5.132)scale(2.41522 4.25509)" gradientUnits="userSpaceOnUse" href="#SVGXpN2Cv7k"/><radialGradient id="SVGCmBVRcxB" cx="59.193" cy="38.098" r="5.501" gradientTransform="rotate(44.195 225.87 6.56)scale(2.27181 4.30284)" gradientUnits="userSpaceOnUse" href="#SVGXpN2Cv7k"/></defs><path fill="url(#SVGuGJ3HbdJ)" d="M0 117.37V87.272l34.796-28.068c7.746-6.248 15.304-8.216 23.363-3.753c3.144 1.74 4.263 7.499 2.245 11.936z"/><path fill="url(#SVGoJRE1d7m)" d="M32.875 61.271c6.497-7.899 15.238-14.989 25.507-21.195c6.803-4.11 12.273 4.327 6.394 12.786c-6.09 8.023-14.38 14.928-21.136 19.664c-4.536 3.179-13.723-7.657-10.765-11.255"/><path fill="url(#SVGCmBVRcxB)" d="M32.875 61.271c6.497-7.899 15.238-14.989 25.507-21.195c6.803-4.11 12.273 4.327 6.394 12.786c-6.09 8.023-14.38 14.928-21.136 19.664c-4.536 3.179-13.723-7.657-10.765-11.255"/><path fill="url(#SVGEIhUyUOY)" d="M0 117.37v10.013h29.427l53.924-43.814c5.43-5.2 4.814-13.84 2.121-18.566c-5.646-9.919-17.22-.971-25.068 2.384z"/><path fill="url(#SVGEl2jeeKF)" d="M58.733 68.07c5.213-5.715 28.256-25.774 32.512-21.452c3.87 3.932 1.747 12.598-7.48 22.78c-7.309 8.061-16.517 13.489-21.305 9.695c-3.974-3.144-6.768-7.69-3.727-11.024z"/><path fill="url(#SVGGXUzEwBW)" d="M58.733 68.07c5.213-5.715 28.256-25.774 32.512-21.452c3.87 3.932 1.747 12.598-7.48 22.78c-7.309 8.061-16.517 13.489-21.305 9.695c-3.974-3.144-6.768-7.69-3.727-11.024z"/><path fill="url(#SVGNRJWHeQz)" d="M29.427 127.383h45.216c12.078-11.678 27.234-25.566 20.927-36.44c-3.716-6.399-8.02-7.567-12.219-7.375z"/><path fill="url(#SVGHimSxd9I)" d="M100.788 73.866c-1.308-7.854-28.891 15.579-30.554 18.676c-1.608 2.994 2.511 14.462 9.037 11.532c8.355-3.948 23.683-17.206 21.517-30.208"/><path fill="url(#SVGrOSXxcNY)" d="M100.788 73.866c-1.308-7.854-28.891 15.579-30.554 18.676c-1.608 2.994 2.511 14.462 9.037 11.532c8.355-3.948 23.683-17.206 21.517-30.208"/><path fill="url(#SVG3fFUedlA)" d="M102.554 57.16c-9.007 6.778-3.168 17.825-13.588 23.862c13.611 2.815 22-16.195 19.791-23.168z"/><path fill="url(#SVGpm5DKeGw)" d="M102.554 57.16c-9.007 6.778-3.168 17.825-13.588 23.862c13.611 2.815 22-16.195 19.791-23.168z"/><path fill="url(#SVG4lkTQbHK)" d="m120.353 20.507l-11.58 38.1c-2.196.882-4.75.275-6.198-1.508l9.171-39.294z"/><path fill="url(#SVGpz4CFb1q)" d="M128 .617v23.9c-7.962 3.174-28.11-4.765-25.764-12.255L105.881.617z"/></svg>